<?xml version="1.0" encoding="UTF-8"?>
<svg version="1.1" xmlns="http://www.w3.org/2000/svg" width="512" height="512">
<path d="M0 0 C1.21961426 0.25740967 1.21961426 0.25740967 2.46386719 0.52001953 C39.42047259 8.50658605 72.98952685 25.52469879 100.44921875 51.625 C102.95357876 54.01955163 102.95357876 54.01955163 105.625 56.08203125 C107.79398669 57.8336307 109.51890258 59.56455714 111.3125 61.6875 C113.11094491 63.80240946 114.90410786 65.8978811 116.8046875 67.921875 C143.1972544 96.17615824 160.39404152 135.03782465 166 173 C166.11424316 173.75587402 166.22848633 174.51174805 166.34619141 175.29052734 C173.69552621 226.2132516 161.55002743 279.78377989 130.84765625 321.26171875 C127.03955705 326.29716921 123.12639492 331.22088443 119 336 C118.24976563 336.87269531 117.49953125 337.74539063 116.7265625 338.64453125 C112.12627876 343.88069039 107.33549854 348.53071366 102 353 C101.07832031 353.82113281 100.15664063 354.64226562 99.20703125 355.48828125 C59.10196012 390.97909929 6.5729868 404.35935937 -46 402 C-74.87947492 400.11854424 -107.32333831 391.99973272 -131.75097656 375.84179688 C-136.35092108 372.8603987 -138.73291665 372.89673142 -144 374 C-146.28289091 374.82414223 -148.53570003 375.73471135 -150.7578125 376.7109375 C-151.72565926 377.13125244 -151.72565926 377.13125244 -152.71305847 377.56005859 C-154.11658788 378.17055475 -155.51846939 378.78485058 -156.91885376 379.40252686 C-159.95583415 380.74123316 -163.00163383 382.05931268 -166.04689026 383.37905884 C-167.69576831 384.09391377 -169.3442264 384.80973805 -170.99229431 385.52645874 C-180.73829861 389.76400225 -190.51006112 393.94048088 -200.29315186 398.09161377 C-203.27929703 399.36088694 -206.26194787 400.63813951 -209.24462891 401.91552734 C-211.09647927 402.70196949 -212.94852101 403.4879612 -214.80078125 404.2734375 C-215.64311813 404.63630859 -216.48545502 404.99917969 -217.35331726 405.37304688 C-227.41780081 409.61480933 -227.41780081 409.61480933 -232.625 408.375 C-235.71355858 406.58688714 -237.18482784 405.09251553 -239 402 C-239.5554607 395.46077332 -238.15375554 390.62286475 -235.80859375 384.5625 C-235.30289101 383.20921852 -235.30289101 383.20921852 -234.78697205 381.82859802 C-234.06013899 379.88920125 -233.32722307 377.95207524 -232.58880615 376.01705933 C-231.42616791 372.97030366 -230.27984371 369.91783352 -229.13720703 366.86352539 C-225.66212218 357.59332311 -222.13566095 348.34293821 -218.58955383 339.09970093 C-217.17938478 335.41957707 -215.7773478 331.73637876 -214.37576294 328.05297852 C-213.38915665 325.47449819 -212.3873794 322.90227291 -211.38452148 320.33007812 C-210.78436195 318.76065803 -210.18479935 317.19100948 -209.5859375 315.62109375 C-209.30660873 314.9179454 -209.02727997 314.21479706 -208.73948669 313.49034119 C-207.27342978 309.5967227 -206.61441628 306.97604165 -208 303 C-208.84187271 301.15941996 -208.84187271 301.15941996 -209.93359375 299.453125 C-210.33030273 298.78635742 -210.72701172 298.11958984 -211.13574219 297.43261719 C-211.56532227 296.71235352 -211.99490234 295.99208984 -212.4375 295.25 C-225.62909237 272.22937802 -233.67301115 246.27679625 -237 220 C-237.0935376 219.27031006 -237.1870752 218.54062012 -237.28344727 217.78881836 C-243.31575621 165.06176874 -228.22466759 111.86145369 -195.34594727 70.28710938 C-175.49573344 45.66184839 -151.57409462 27.54887714 -123 14 C-121.91589844 13.47535156 -120.83179688 12.95070313 -119.71484375 12.41015625 C-83.65076443 -4.11008422 -38.80008258 -8.47253614 0 0 Z M-170 73 C-173.18790437 76.54000127 -176.12156522 80.2064559 -179 84 C-179.69996094 84.86109375 -180.39992187 85.7221875 -181.12109375 86.609375 C-209.52026282 122.45003757 -220.99086799 169.6477328 -216.49609375 214.74609375 C-213.04239485 243.50938197 -203.54237304 274.37422658 -185.90698242 297.71166992 C-182.80406476 305.54037712 -186.11316346 313.24963286 -188.9453125 320.65625 C-189.35280731 321.75739136 -189.76030212 322.85853271 -190.18014526 323.99304199 C-191.48145744 327.50062231 -192.80259925 331.00032292 -194.125 334.5 C-194.99095527 336.81980083 -195.85555112 339.1401096 -196.71875 341.4609375 C-197.97874707 344.84741666 -199.2398972 348.23341285 -200.50714111 351.6171875 C-203.78445743 360.37292174 -206.94031485 369.16606837 -210 378 C-206.66422115 377.41260739 -203.7173218 376.59500854 -200.60302734 375.26928711 C-199.7637973 374.91478989 -198.92456726 374.56029266 -198.05990601 374.1950531 C-197.1609964 373.80970901 -196.26208679 373.42436493 -195.3359375 373.02734375 C-194.38925201 372.62600723 -193.44256653 372.22467072 -192.4671936 371.81117249 C-189.43455902 370.52437541 -186.40473855 369.23109895 -183.375 367.9375 C-181.39081205 367.09396092 -179.40643871 366.25085777 -177.421875 365.40820312 C-176.44631653 364.99365875 -175.47075806 364.57911438 -174.46563721 364.15200806 C-172.50724672 363.32020501 -170.54854788 362.48912757 -168.58953857 361.65878296 C-163.88563838 359.6627834 -159.19073942 357.65017718 -154.51269531 355.59423828 C-153.65092682 355.21989151 -152.78915833 354.84554474 -151.90127563 354.45985413 C-150.29484429 353.76169581 -148.69197383 353.0552593 -147.09359741 352.33885193 C-142.92354437 350.53853982 -139.62409671 349.36611609 -135 350 C-132.34130859 351.15820312 -132.34130859 351.15820312 -129.6484375 352.78125 C-128.13926758 353.66792358 -128.13926758 353.66792358 -126.59960938 354.57250977 C-125.53548828 355.20858154 -124.47136719 355.84465332 -123.375 356.5 C-80.41645143 381.33736327 -30.868327 388.01145406 17.25097656 375.73730469 C45.17586144 368.24768192 70.08260159 353.84654184 91 334 C92.24231905 332.94918468 93.49140814 331.9062691 94.75 330.875 C126.32801379 304.07832419 143.36961052 259.16750807 146.80810547 218.85375977 C150.09438879 169.98179314 134.57032608 121.06536819 102.37890625 83.98046875 C99.64817121 80.92685623 96.83535776 77.95627054 94 75 C93.49065918 74.46342773 92.98131836 73.92685547 92.45654297 73.37402344 C64.13464875 43.66525482 26.4169913 25.3553142 -14 19 C-15.61745117 18.73848145 -15.61745117 18.73848145 -17.26757812 18.47167969 C-21.16837694 17.9787216 -25.00847354 17.80439358 -28.93359375 17.76171875 C-29.68009186 17.7519249 -30.42658997 17.74213104 -31.19570923 17.73204041 C-84.72071833 17.17526057 -132.24639829 34.10657914 -170 73 Z " fill="#000000" transform="translate(293,55)"/>
<path d="M0 0 C8.51968105 6.736492 13.68985306 18.31718703 19.25 27.4921875 C20.90885001 30.22515438 22.58760351 32.94106613 24.3125 35.6328125 C37.2407988 55.95570645 37.2407988 55.95570645 35 68 C31.21981037 78.22541296 20.29040328 86.04412356 11.93359375 92.40625 C9.89918742 93.8634999 9.89918742 93.8634999 9 96 C14.92033685 111.32448204 25.84595825 123.27261965 37 135 C37.58007812 135.63292969 38.16015625 136.26585937 38.7578125 136.91796875 C47.79655247 146.47904797 62.65225217 159.59089429 76 162 C76.71285156 161.154375 77.42570313 160.30875 78.16015625 159.4375 C80.14065771 157.08931489 82.12736701 154.74654119 84.1171875 152.40625 C85.76851351 150.46275808 87.39846547 148.51005803 89.0078125 146.53125 C93.50958328 141.08724813 97.72918274 136.87651759 104.8359375 135.41796875 C121.13937435 134.23043446 136.50733376 147.20356987 149.60302734 155.49609375 C151.73815333 156.83571241 153.88635323 158.14595761 156.05078125 159.4375 C156.6435083 159.79263672 157.23623535 160.14777344 157.84692383 160.51367188 C159.36445986 161.41912832 160.88520209 162.31920554 162.40625 163.21875 C168.05768922 167.09985886 171.97865672 171.46680715 173.5078125 178.25390625 C175.1755083 189.59068942 170.35547119 198.8546043 164 208 C153.19596695 221.74283241 138.67231297 233.93092928 121 237 C118.20054985 237.2773199 115.43696401 237.33415947 112.625 237.3125 C111.85043457 237.30758545 111.07586914 237.3026709 110.27783203 237.29760742 C67.55616217 236.45662967 28.82421774 212.0760795 -1.7109375 184.04296875 C-3.2963076 182.62803946 -4.92981763 181.26593345 -6.59765625 179.94921875 C-8.67364887 178.26479547 -10.34099092 176.65408537 -12.0625 174.625 C-14.23520553 172.06749565 -16.41872399 169.53331643 -18.66015625 167.03515625 C-31.08715421 153.09287436 -41.418708 137.57623139 -50 121 C-50.31662598 120.39269043 -50.63325195 119.78538086 -50.95947266 119.15966797 C-56.25553186 108.85240287 -59.90594587 98.15179224 -63 87 C-63.34289062 85.77925781 -63.68578125 84.55851562 -64.0390625 83.30078125 C-68.61260456 64.21586041 -67.85720385 45.16810643 -57.6875 28.1875 C-45.75243924 10.7065973 -22.55502351 -10.71363617 0 0 Z M-19.5859375 20.3359375 C-24.88090739 23.9858682 -29.43350525 28.4979128 -34 33 C-34.95326172 33.93392578 -34.95326172 33.93392578 -35.92578125 34.88671875 C-43.5259499 42.99749304 -45.69449205 51.76247846 -45.5234375 62.59985352 C-45.16574118 71.04463306 -43.49602432 78.94561848 -41 87 C-40.80164551 87.64469238 -40.60329102 88.28938477 -40.39892578 88.95361328 C-31.50612591 116.84884789 -14.02019517 141.03734201 6 162 C6.87269531 162.92554688 7.74539062 163.85109375 8.64453125 164.8046875 C15.56246204 171.95557935 23.0125794 178.09002512 31 184 C31.53882813 184.39960938 32.07765625 184.79921875 32.6328125 185.2109375 C57.15153194 203.207436 87.83835302 218.65318731 119 216 C130.98804763 213.53325888 140.83842917 203.41718368 148 194 C149.89847948 190.75306781 151.53401962 187.46236572 153 184 C149.2514775 179.88524255 145.52777541 177.38970692 140.625 174.8125 C134.18629887 171.32206981 128.07270219 167.52769029 122.04931641 163.36254883 C116.03588901 158.71344968 116.03588901 158.71344968 108.99682617 157.24829102 C105.49816216 158.56536969 103.48975491 161.73674149 101.1875 164.5625 C100.65560059 165.19712158 100.12370117 165.83174316 99.57568359 166.4855957 C97.32157978 169.17534644 95.09357948 171.88564416 92.87109375 174.6015625 C89.07650484 179.13469556 85.99357824 182.34798723 79.89453125 183.34375 C61.40983485 184.54992921 44.66293582 170.17909685 31.5859375 158.921875 C29.01705296 156.65473246 26.50153728 154.34123012 24 152 C22.59427734 150.69289063 22.59427734 150.69289063 21.16015625 149.359375 C6.39712032 135.31028516 -11.54995647 115.07420195 -12.375 93.75 C-12.07158427 86.25796532 -8.60741593 82.18558093 -3.390625 77.15234375 C0.12381029 73.98820348 3.78202979 71.01884491 7.484375 68.078125 C9.80316588 66.1626021 11.91416167 64.1638136 14 62 C12.48851472 56.35892102 9.65992087 52.01565001 6.5 47.1875 C1.85885062 40.00426652 -2.57456525 32.74906678 -6.70117188 25.2565918 C-8.23835187 22.55174623 -9.54679345 20.33818822 -12.0625 18.4609375 C-15.00857956 17.76005567 -17.02370526 18.92527031 -19.5859375 20.3359375 Z " fill="#000000" transform="translate(208,135)"/>
</svg>
